<?xml version="1.0" standalone="no"?>
<!DOCTYPE svg PUBLIC "-//W3C//DTD SVG 20010904//EN"
 "http://www.w3.org/TR/2001/REC-SVG-20010904/DTD/svg10.dtd">
<svg version="1.0" xmlns="http://www.w3.org/2000/svg"
 width="256.000000pt" height="256.000000pt" viewBox="0 0 256.000000 256.000000"
 preserveAspectRatio="xMidYMid meet">
<metadata>
Created by potrace 1.11, written by Peter Selinger 2001-2013
</metadata>
<g transform="translate(0.000000,256.000000) scale(0.100000,-0.100000)"
fill="#000000" stroke="none">
<path d="M81 2272 c-71 -36 -76 -52 -76 -256 0 -199 4 -215 62 -253 24 -16 57
-18 290 -19 294 -1 308 1 350 65 22 32 23 44 23 206 0 162 -1 174 -23 206 -43
65 -62 69 -342 69 -218 0 -254 -2 -284 -18z"/>
<path d="M991 2272 c-70 -35 -76 -53 -79 -245 -3 -190 4 -219 61 -261 27 -20
42 -21 298 -22 260 -1 271 0 302 20 59 39 67 71 67 257 0 156 -1 168 -23 200
-43 65 -62 69 -342 69 -218 0 -254 -2 -284 -18z"/>
<path d="M1901 2272 c-70 -35 -76 -53 -79 -245 -3 -190 4 -219 61 -261 27 -20
41 -21 302 -21 261 0 275 1 302 21 55 40 63 72 63 254 0 185 -8 211 -72 250
-31 19 -51 20 -288 20 -223 0 -259 -2 -289 -18z"/>
<path d="M81 1542 c-70 -35 -76 -52 -78 -252 -2 -170 -1 -179 20 -211 43 -64
58 -67 351 -66 290 2 296 3 336 70 18 28 20 51 20 203 0 161 -1 173 -23 205
-43 65 -62 69 -342 69 -218 0 -254 -2 -284 -18z"/>
<path d="M991 1542 c-70 -35 -76 -53 -79 -245 -3 -190 4 -219 61 -261 27 -20
42 -21 297 -22 300 -2 308 0 350 68 18 30 20 51 20 202 0 154 -2 172 -22 207
-36 64 -61 69 -346 69 -215 0 -251 -2 -281 -18z"/>
<path d="M1901 1542 c-19 -9 -44 -30 -55 -45 -19 -26 -21 -42 -21 -212 0 -170
2 -186 21 -212 43 -59 61 -62 349 -60 289 2 294 3 336 70 18 29 19 47 17 214
-3 178 -3 182 -28 209 -47 50 -69 54 -337 54 -216 0 -252 -2 -282 -18z"/>
<path d="M93 819 c-39 -11 -80 -59 -88 -102 -4 -18 -5 -103 -3 -189 3 -140 5
-160 24 -185 43 -59 64 -63 339 -63 280 0 299 4 342 69 22 32 23 44 23 205 0
152 -2 175 -20 203 -40 67 -47 68 -330 69 -140 1 -269 -3 -287 -7z"/>
<path d="M1012 820 c-43 -10 -80 -45 -93 -89 -6 -21 -9 -103 -7 -198 3 -145 5
-165 24 -190 45 -61 62 -64 356 -61 l266 3 27 25 c51 47 55 66 55 247 0 150
-2 171 -20 201 -41 67 -53 69 -328 69 -136 0 -262 -3 -280 -7z"/>
<path d="M1913 819 c-39 -11 -80 -59 -88 -102 -4 -18 -5 -103 -3 -189 3 -140
5 -160 24 -185 43 -59 64 -63 343 -63 239 0 255 1 291 21 62 35 70 65 70 257
0 148 -2 171 -20 199 -40 67 -47 68 -330 69 -140 1 -269 -3 -287 -7z"/>
</g>
</svg>
